<svg width="22" height="9" viewBox="0 0 22 9" fill="none" xmlns="http://www.w3.org/2000/svg">
<path d="M0.596 8.388C0.516 8.34 0.464 8.276 0.44 8.196C0.408 8.116 0.368 8.04 0.32 7.968V7.932C0.32 7.892 0.316 7.852 0.308 7.812C0.3 7.78 0.296 7.748 0.296 7.716V7.524L0.44 7.632L0.464 7.62L0.536 7.512L0.596 7.5L0.644 7.44C0.828 7.36 0.98 7.292 1.1 7.236C1.212 7.188 1.348 7.1 1.508 6.972L1.532 6.96C1.476 7.032 1.436 7.108 1.412 7.188C1.388 7.268 1.344 7.34 1.28 7.404L1.268 7.476L1.316 7.536C1.484 7.472 1.68 7.304 1.904 7.032C2.128 6.76 2.36 6.432 2.6 6.048C2.84 5.664 3.068 5.268 3.284 4.86C3.5 4.444 3.68 4.064 3.824 3.72C3.976 3.376 4.072 3.112 4.112 2.928L4.088 2.892L4.016 2.976L3.968 2.712C3.896 2.72 3.852 2.68 3.836 2.592C3.82 2.496 3.812 2.4 3.812 2.304C3.812 2.224 3.808 2.156 3.8 2.1C3.8 2.036 3.788 2.004 3.764 2.004L3.74 1.908L3.788 1.74L4.208 1.656V1.428C4.24 1.316 4.224 1.22 4.16 1.14C4.104 1.052 4.056 0.964 4.016 0.876C4.016 0.82 4.048 0.74 4.112 0.636C4.176 0.524 4.24 0.468 4.304 0.468L4.364 0.492C4.412 0.676 4.452 0.86 4.484 1.044C4.524 1.228 4.552 1.416 4.568 1.608H4.616C4.68 1.608 4.72 1.62 4.736 1.644C4.752 1.668 4.76 1.716 4.76 1.788C4.76 2.052 4.796 2.312 4.868 2.568C4.948 2.824 4.988 3.088 4.988 3.36C4.988 3.464 5.02 3.64 5.084 3.888C5.148 4.128 5.232 4.38 5.336 4.644C5.44 4.9 5.552 5.124 5.672 5.316C5.8 5.5 5.928 5.592 6.056 5.592H6.188C6.276 5.52 6.36 5.456 6.44 5.4C6.52 5.336 6.6 5.268 6.68 5.196C6.768 5.116 6.812 5.06 6.812 5.028C6.82 4.996 6.836 4.928 6.86 4.824C6.876 4.76 6.9 4.704 6.932 4.656C6.972 4.6 7 4.544 7.016 4.488C7.264 3.944 7.472 3.372 7.64 2.772C7.816 2.164 7.904 1.564 7.904 0.972L7.832 0.804C7.768 0.836 7.7 0.868 7.628 0.9C7.556 0.924 7.5 0.968 7.46 1.032L7.388 1.068L7.292 1.056C7.148 1.184 7 1.308 6.848 1.428C6.704 1.54 6.564 1.664 6.428 1.8L6.368 1.776C6.416 1.704 6.5 1.596 6.62 1.452C6.74 1.308 6.876 1.156 7.028 0.996C7.18 0.828 7.324 0.668 7.46 0.516C7.596 0.356 7.7 0.224 7.772 0.12C7.812 0.104 7.848 0.0879998 7.88 0.0719998C7.92 0.0559998 7.956 0.0479997 7.988 0.0479997C8.148 0.0479997 8.268 0.104 8.348 0.216C8.428 0.328 8.468 0.456 8.468 0.6C8.468 0.8 8.44 0.992 8.384 1.176C8.328 1.36 8.308 1.556 8.324 1.764L8.276 1.848H8.216L8.228 1.74L8.204 1.704C8.188 1.816 8.136 1.944 8.048 2.088C7.968 2.232 7.948 2.356 7.988 2.46L7.892 2.592C7.908 2.624 7.916 2.664 7.916 2.712C7.916 2.984 7.864 3.252 7.76 3.516C7.656 3.772 7.548 4.032 7.436 4.296C7.332 4.552 7.28 4.82 7.28 5.1C7.28 5.156 7.3 5.204 7.34 5.244C7.38 5.276 7.4 5.32 7.4 5.376C7.4 5.504 7.356 5.66 7.268 5.844C7.188 6.028 7.084 6.196 6.956 6.348C6.836 6.508 6.716 6.624 6.596 6.696L6.404 6.708C6.324 6.716 6.224 6.7 6.104 6.66C5.992 6.628 5.904 6.576 5.84 6.504V6.48L5.732 6.492C5.588 6.508 5.444 6.448 5.3 6.312C5.164 6.176 5.036 6.004 4.916 5.796C4.804 5.588 4.712 5.38 4.64 5.172C4.576 4.964 4.544 4.796 4.544 4.668C4.544 4.66 4.552 4.632 4.568 4.584C4.584 4.536 4.596 4.504 4.604 4.488L4.556 4.428L4.532 4.44L4.436 4.212L4.496 4.068L4.376 3.9H4.364C4.3 3.9 4.252 3.872 4.22 3.816C4.196 3.76 4.176 3.704 4.16 3.648C4.128 3.736 4.072 3.872 3.992 4.056C3.912 4.232 3.824 4.424 3.728 4.632C3.632 4.832 3.54 5.016 3.452 5.184C3.364 5.352 3.296 5.468 3.248 5.532L3.26 5.544C3.22 5.6 3.18 5.656 3.14 5.712C3.108 5.768 3.072 5.828 3.032 5.892L3.044 5.904L3.02 5.952C2.988 5.992 2.956 6.032 2.924 6.072C2.9 6.112 2.872 6.156 2.84 6.204C2.752 6.38 2.62 6.58 2.444 6.804C2.276 7.028 2.084 7.248 1.868 7.464C1.652 7.688 1.432 7.88 1.208 8.04C0.984 8.208 0.78 8.324 0.596 8.388ZM8.108 2.244L8.072 2.196C8.08 2.172 8.092 2.148 8.108 2.124C8.132 2.092 8.152 2.068 8.168 2.052L8.144 1.98L8.18 1.956H8.24C8.232 2.012 8.22 2.064 8.204 2.112C8.188 2.16 8.156 2.204 8.108 2.244ZM7.988 2.664C7.988 2.608 7.996 2.556 8.012 2.508C8.036 2.46 8.064 2.412 8.096 2.364L8.108 2.424C8.1 2.472 8.084 2.516 8.06 2.556C8.044 2.588 8.02 2.624 7.988 2.664ZM5.936 6.024L5.948 5.988L5.936 5.928L5.9 6.012L5.936 6.024ZM1.616 6.924L1.64 6.852L1.676 6.876L1.7 6.924H1.616ZM9.99734 3C9.97334 3 9.90934 2.992 9.80534 2.976C9.70934 2.952 9.66134 2.924 9.66134 2.892C9.66134 2.772 9.72134 2.684 9.84134 2.628C9.96934 2.572 10.0733 2.516 10.1533 2.46H10.1773C10.2893 2.372 10.4213 2.312 10.5733 2.28C10.7333 2.248 10.8813 2.228 11.0173 2.22L11.0053 2.232C10.8533 2.28 10.7173 2.368 10.5973 2.496C10.4773 2.616 10.3653 2.732 10.2613 2.844C10.1653 2.948 10.0773 3 9.99734 3ZM8.44934 6.336L8.25734 6.06C8.24934 6.004 8.23734 5.952 8.22134 5.904C8.20534 5.848 8.19734 5.792 8.19734 5.736C8.19734 5.664 8.20134 5.592 8.20934 5.52C8.21734 5.448 8.22534 5.376 8.23334 5.304L8.31734 5.1L8.30534 5.088C8.34534 4.992 8.38534 4.868 8.42534 4.716C8.46534 4.564 8.51334 4.412 8.56934 4.26C8.63334 4.1 8.70934 3.968 8.79734 3.864C8.88534 3.752 8.99334 3.696 9.12134 3.696C9.20934 3.696 9.30934 3.728 9.42134 3.792C9.53334 3.856 9.58934 3.94 9.58934 4.044C9.58934 4.084 9.55734 4.156 9.49334 4.26C9.43734 4.364 9.36934 4.48 9.28934 4.608C9.20934 4.728 9.12934 4.836 9.04934 4.932C8.97734 5.02 8.92534 5.072 8.89334 5.088C8.82134 5.216 8.72134 5.364 8.59334 5.532C8.46534 5.7 8.40134 5.856 8.40134 6C8.40134 6.056 8.40934 6.108 8.42534 6.156C8.44934 6.204 8.46134 6.256 8.46134 6.312L8.44934 6.336ZM9.47216 8.46C9.32816 8.46 9.18416 8.416 9.04016 8.328C8.89616 8.24 8.77616 8.128 8.68016 7.992C8.57616 7.856 8.52416 7.716 8.52416 7.572L8.56016 7.5C8.64016 7.588 8.70016 7.684 8.74016 7.788C8.78016 7.892 8.83616 7.976 8.90816 8.04C8.97216 8.112 9.08816 8.148 9.25616 8.148C9.28816 8.148 9.32016 8.144 9.35216 8.136C9.38416 8.128 9.41616 8.12 9.44816 8.112C9.52016 8.136 9.62816 8.092 9.77216 7.98C9.92416 7.868 10.0762 7.724 10.2282 7.548C10.3882 7.38 10.5242 7.212 10.6362 7.044C10.7562 6.884 10.8202 6.768 10.8282 6.696C10.9562 6.504 11.0762 6.308 11.1882 6.108C11.3002 5.908 11.4122 5.712 11.5242 5.52L11.5362 5.364L11.6442 5.304L11.6202 5.292L11.6442 5.184L11.6202 5.1C11.5882 5.132 11.5482 5.16 11.5002 5.184C11.4522 5.2 11.4082 5.224 11.3682 5.256L11.3562 5.364C11.2442 5.388 11.1322 5.444 11.0202 5.532C10.9162 5.612 10.8122 5.692 10.7082 5.772C10.6042 5.844 10.4922 5.88 10.3722 5.88C10.3162 5.88 10.2442 5.876 10.1562 5.868C10.0762 5.852 10.0162 5.828 9.97616 5.796C9.87216 5.772 9.79616 5.744 9.74816 5.712C9.70016 5.672 9.66816 5.6 9.65216 5.496L9.70016 5.34L9.66416 5.244C9.70416 5.124 9.73216 5.036 9.74816 4.98C9.77216 4.924 9.80416 4.876 9.84416 4.836C9.89216 4.788 9.96816 4.724 10.0722 4.644C10.0802 4.604 10.1002 4.576 10.1322 4.56C10.1722 4.536 10.2082 4.52 10.2402 4.512L10.2522 4.452L10.3722 4.308L10.4082 4.332L10.4802 4.224C10.5362 4.184 10.5922 4.16 10.6482 4.152C10.7122 4.136 10.7722 4.112 10.8282 4.08C10.8442 3.992 10.8962 3.94 10.9842 3.924C11.0802 3.9 11.1362 3.856 11.1522 3.792H11.2002L11.4042 3.66L11.4762 3.696L11.6442 3.588C11.6922 3.588 11.7362 3.584 11.7762 3.576C11.8242 3.568 11.8682 3.564 11.9082 3.564L11.9562 3.588C11.7962 3.644 11.6122 3.736 11.4042 3.864C11.1962 3.984 10.9922 4.128 10.7922 4.296C10.6002 4.456 10.4402 4.632 10.3122 4.824C10.1842 5.016 10.1202 5.208 10.1202 5.4C10.1202 5.552 10.2002 5.628 10.3602 5.628C10.5042 5.628 10.6522 5.584 10.8042 5.496C10.9642 5.408 11.1082 5.3 11.2362 5.172C11.3642 5.044 11.4562 4.92 11.5122 4.8L11.7162 4.632L11.8242 4.464C11.8802 4.456 11.9202 4.408 11.9442 4.32C11.9682 4.232 11.9922 4.136 12.0162 4.032C12.0482 3.92 12.0962 3.824 12.1602 3.744C12.2322 3.664 12.3362 3.624 12.4722 3.624C12.5442 3.624 12.6162 3.644 12.6882 3.684C12.7602 3.724 12.7962 3.788 12.7962 3.876C12.7962 3.916 12.7642 4.012 12.7002 4.164C12.6442 4.316 12.5682 4.496 12.4722 4.704C12.3762 4.912 12.2762 5.12 12.1722 5.328C12.0762 5.528 11.9842 5.708 11.8962 5.868C11.8162 6.02 11.7602 6.116 11.7282 6.156C11.7202 6.204 11.7042 6.272 11.6802 6.36C11.6642 6.456 11.6322 6.512 11.5842 6.528C11.4562 6.752 11.3162 6.96 11.1642 7.152C11.0122 7.344 10.8642 7.544 10.7202 7.752L10.5042 7.848C10.4802 7.88 10.4522 7.912 10.4202 7.944C10.3962 7.976 10.3642 8.004 10.3242 8.028L10.2882 8.016C10.1762 8.144 10.0562 8.248 9.92816 8.328C9.80816 8.416 9.65616 8.46 9.47216 8.46ZM15.1808 6.792L14.9408 6.516C14.9008 6.356 14.8568 6.192 14.8088 6.024C14.7688 5.864 14.7408 5.7 14.7248 5.532L14.7848 5.304L14.7608 5.292C14.7928 5.204 14.8248 5.116 14.8568 5.028C14.8968 4.932 14.9168 4.84 14.9168 4.752C14.8768 4.792 14.8328 4.832 14.7848 4.872C14.7448 4.912 14.7128 4.96 14.6888 5.016C14.6568 5.048 14.6288 5.088 14.6048 5.136C14.5808 5.184 14.5488 5.224 14.5088 5.256L14.4968 5.364C14.3848 5.388 14.2728 5.444 14.1608 5.532C14.0568 5.612 13.9528 5.692 13.8488 5.772C13.7448 5.844 13.6328 5.88 13.5128 5.88C13.4568 5.88 13.3848 5.876 13.2968 5.868C13.2168 5.852 13.1568 5.828 13.1168 5.796C13.0128 5.772 12.9368 5.744 12.8888 5.712C12.8488 5.672 12.8168 5.6 12.7928 5.496L12.8408 5.34L12.8048 5.244C12.8448 5.116 12.8728 5.024 12.8888 4.968C12.9128 4.912 12.9448 4.864 12.9848 4.824C13.0328 4.784 13.1088 4.724 13.2128 4.644C13.2208 4.604 13.2408 4.576 13.2728 4.56C13.3128 4.536 13.3488 4.52 13.3808 4.512L13.3928 4.452L13.5128 4.308L13.5488 4.332L13.6208 4.224C13.6768 4.184 13.7328 4.16 13.7888 4.152C13.8528 4.136 13.9128 4.112 13.9688 4.08C13.9848 3.992 14.0368 3.94 14.1248 3.924C14.2208 3.9 14.2768 3.856 14.2928 3.792H14.3408L14.5448 3.66L14.6168 3.696L14.7848 3.588C14.8328 3.588 14.8768 3.584 14.9168 3.576C14.9648 3.568 15.0088 3.564 15.0488 3.564L15.0968 3.588C14.9368 3.644 14.7528 3.736 14.5448 3.864C14.3368 3.984 14.1328 4.128 13.9328 4.296C13.7408 4.456 13.5808 4.632 13.4528 4.824C13.3248 5.016 13.2608 5.208 13.2608 5.4C13.2608 5.552 13.3408 5.628 13.5008 5.628C13.6448 5.628 13.7928 5.584 13.9448 5.496C14.1048 5.408 14.2488 5.3 14.3768 5.172C14.5048 5.044 14.5968 4.92 14.6528 4.8L14.8568 4.632C14.8728 4.592 14.8928 4.564 14.9168 4.548C14.9408 4.532 14.9568 4.504 14.9648 4.464C15.0208 4.456 15.0608 4.408 15.0848 4.32C15.1088 4.232 15.1368 4.136 15.1688 4.032C15.2008 3.92 15.2448 3.824 15.3008 3.744C15.3568 3.664 15.4408 3.624 15.5528 3.624C15.6408 3.624 15.7408 3.664 15.8528 3.744C15.9648 3.816 16.0208 3.904 16.0208 4.008C16.0208 4.064 15.9728 4.172 15.8768 4.332C15.7808 4.492 15.6688 4.68 15.5408 4.896C15.4208 5.112 15.3128 5.336 15.2168 5.568C15.1208 5.8 15.0728 6.02 15.0728 6.228C15.0728 6.316 15.0888 6.404 15.1208 6.492C15.1608 6.58 15.1848 6.668 15.1928 6.756L15.1808 6.792ZM16.2526 5.988C16.1726 5.996 16.1046 5.964 16.0486 5.892C16.0006 5.812 15.9766 5.732 15.9766 5.652C15.9766 5.604 15.9846 5.556 16.0006 5.508C16.0166 5.452 16.0326 5.404 16.0486 5.364C16.0646 5.372 16.0726 5.372 16.0726 5.364C16.0806 5.348 16.0886 5.336 16.0966 5.328L16.0846 5.196C16.1006 5.18 16.1206 5.144 16.1446 5.088C16.1766 5.024 16.1966 4.984 16.2046 4.968V4.956H16.2166L16.2646 4.98C16.3046 4.916 16.3486 4.852 16.3966 4.788C16.4446 4.724 16.4606 4.652 16.4446 4.572L16.6126 4.344V4.332C16.6126 4.284 16.6326 4.232 16.6726 4.176C16.7206 4.112 16.7446 4.068 16.7446 4.044C16.7446 3.98 16.7166 3.948 16.6606 3.948C16.6366 3.948 16.6086 3.952 16.5766 3.96C16.5526 3.968 16.5286 3.976 16.5046 3.984L16.4926 3.924L16.9726 3.456V3.432C17.0606 3.368 17.1406 3.3 17.2126 3.228C17.2846 3.156 17.3686 3.092 17.4646 3.036C17.5526 3.044 17.6406 3.064 17.7286 3.096C17.8246 3.128 17.8966 3.18 17.9446 3.252L17.9566 3.408V3.42C17.9486 3.452 17.8886 3.536 17.7766 3.672C17.6646 3.808 17.5326 3.96 17.3806 4.128C17.2286 4.288 17.0846 4.44 16.9486 4.584C16.8206 4.728 16.7326 4.824 16.6846 4.872L16.6486 5.088C16.5846 5.096 16.5286 5.14 16.4806 5.22C16.4326 5.292 16.4126 5.36 16.4206 5.424C16.3966 5.432 16.3846 5.452 16.3846 5.484C16.3846 5.508 16.3766 5.52 16.3606 5.52C16.3526 5.552 16.3446 5.58 16.3366 5.604C16.3366 5.628 16.3366 5.656 16.3366 5.688V5.748C16.4006 5.628 16.5126 5.468 16.6726 5.268C16.8326 5.068 17.0126 4.868 17.2126 4.668C17.4206 4.46 17.6246 4.288 17.8246 4.152C18.0246 4.008 18.1926 3.936 18.3286 3.936C18.4246 3.936 18.4886 3.996 18.5206 4.116C18.4966 4.268 18.4566 4.42 18.4006 4.572C18.3446 4.716 18.3166 4.868 18.3166 5.028L18.3406 5.076L18.6286 4.872L18.6526 4.836L18.8326 4.704C18.8886 4.616 18.9846 4.5 19.1206 4.356C19.2566 4.212 19.4006 4.084 19.5526 3.972C19.7046 3.852 19.8286 3.792 19.9246 3.792C19.9166 3.776 19.9286 3.768 19.9606 3.768C20.0966 3.768 20.1846 3.8 20.2246 3.864C20.2646 3.928 20.2846 4.02 20.2846 4.14C20.2846 4.26 20.2526 4.372 20.1886 4.476C20.1326 4.572 20.1046 4.676 20.1046 4.788C20.1046 4.892 20.1326 5.004 20.1886 5.124C20.2446 5.244 20.3326 5.304 20.4526 5.304C20.4926 5.304 20.5286 5.296 20.5606 5.28C20.5926 5.256 20.6286 5.248 20.6686 5.256C20.7326 5.192 20.8006 5.136 20.8726 5.088C20.9526 5.032 21.0326 4.98 21.1126 4.932L21.1846 4.98C21.1606 5.028 21.0966 5.096 20.9926 5.184C20.8966 5.264 20.7806 5.348 20.6446 5.436C20.5166 5.516 20.3926 5.588 20.2726 5.652C20.1606 5.708 20.0766 5.736 20.0206 5.736C19.8446 5.736 19.7206 5.668 19.6486 5.532C19.5846 5.388 19.5406 5.224 19.5166 5.04C19.4926 4.856 19.4526 4.708 19.3966 4.596L19.3366 4.548C19.2726 4.588 19.1726 4.656 19.0366 4.752C18.9086 4.84 18.8286 4.916 18.7966 4.98C18.7006 5.012 18.6166 5.08 18.5446 5.184C18.4806 5.28 18.4166 5.388 18.3526 5.508C18.2886 5.62 18.2166 5.72 18.1366 5.808C18.0566 5.896 17.9526 5.94 17.8246 5.94C17.7686 5.94 17.7166 5.928 17.6686 5.904C17.6286 5.88 17.6086 5.836 17.6086 5.772C17.6086 5.636 17.6326 5.512 17.6806 5.4C17.7366 5.28 17.7886 5.16 17.8366 5.04C17.8926 4.92 17.9206 4.792 17.9206 4.656L17.8486 4.548C17.7526 4.548 17.6326 4.604 17.4886 4.716C17.3446 4.82 17.1926 4.952 17.0326 5.112C16.8806 5.264 16.7406 5.416 16.6126 5.568C16.4926 5.72 16.4086 5.836 16.3606 5.916V5.976L16.2526 5.988Z" fill="white"/>
</svg>
